<?xml version="1.0" standalone="no"?>
<svg xmlns:xlink="http://www.w3.org/1999/xlink" id="wave" style="transform:rotate(0deg); transition: 0.3s" viewBox="0 0 1440 490" version="1.1" xmlns="http://www.w3.org/2000/svg"><defs><linearGradient id="sw-gradient-0" x1="0" x2="0" y1="1" y2="0"><stop stop-color="rgba(255, 255, 255, 1)" offset="0%"/><stop stop-color="rgba(189.293, 189.293, 189.293, 1)" offset="100%"/></linearGradient></defs><path style="transform:translate(0, 0px); opacity:1" fill="url(#sw-gradient-0)" d="M0,147L30,187.8C60,229,120,310,180,302.2C240,294,300,196,360,163.3C420,131,480,163,540,187.8C600,212,660,229,720,228.7C780,229,840,212,900,187.8C960,163,1020,131,1080,106.2C1140,82,1200,65,1260,81.7C1320,98,1380,147,1440,138.8C1500,131,1560,65,1620,49C1680,33,1740,65,1800,114.3C1860,163,1920,229,1980,261.3C2040,294,2100,294,2160,318.5C2220,343,2280,392,2340,359.3C2400,327,2460,212,2520,138.8C2580,65,2640,33,2700,40.8C2760,49,2820,98,2880,163.3C2940,229,3000,310,3060,318.5C3120,327,3180,261,3240,245C3300,229,3360,261,3420,253.2C3480,245,3540,196,3600,179.7C3660,163,3720,180,3780,228.7C3840,278,3900,359,3960,383.8C4020,408,4080,376,4140,351.2C4200,327,4260,310,4290,302.2L4320,294L4320,490L4290,490C4260,490,4200,490,4140,490C4080,490,4020,490,3960,490C3900,490,3840,490,3780,490C3720,490,3660,490,3600,490C3540,490,3480,490,3420,490C3360,490,3300,490,3240,490C3180,490,3120,490,3060,490C3000,490,2940,490,2880,490C2820,490,2760,490,2700,490C2640,490,2580,490,2520,490C2460,490,2400,490,2340,490C2280,490,2220,490,2160,490C2100,490,2040,490,1980,490C1920,490,1860,490,1800,490C1740,490,1680,490,1620,490C1560,490,1500,490,1440,490C1380,490,1320,490,1260,490C1200,490,1140,490,1080,490C1020,490,960,490,900,490C840,490,780,490,720,490C660,490,600,490,540,490C480,490,420,490,360,490C300,490,240,490,180,490C120,490,60,490,30,490L0,490Z"/><defs><linearGradient id="sw-gradient-1" x1="0" x2="0" y1="1" y2="0"><stop stop-color="rgba(127.82, 127.82, 127.82, 1)" offset="0%"/><stop stop-color="rgba(246.213, 246.213, 246.213, 1)" offset="100%"/></linearGradient></defs><path style="transform:translate(0, 50px); opacity:0.9" fill="url(#sw-gradient-1)" d="M0,196L30,179.7C60,163,120,131,180,147C240,163,300,229,360,261.3C420,294,480,294,540,245C600,196,660,98,720,73.5C780,49,840,98,900,155.2C960,212,1020,278,1080,310.3C1140,343,1200,343,1260,326.7C1320,310,1380,278,1440,245C1500,212,1560,180,1620,171.5C1680,163,1740,180,1800,228.7C1860,278,1920,359,1980,400.2C2040,441,2100,441,2160,424.7C2220,408,2280,376,2340,334.8C2400,294,2460,245,2520,236.8C2580,229,2640,261,2700,294C2760,327,2820,359,2880,326.7C2940,294,3000,196,3060,196C3120,196,3180,294,3240,334.8C3300,376,3360,359,3420,318.5C3480,278,3540,212,3600,228.7C3660,245,3720,343,3780,326.7C3840,310,3900,180,3960,163.3C4020,147,4080,245,4140,245C4200,245,4260,147,4290,98L4320,49L4320,490L4290,490C4260,490,4200,490,4140,490C4080,490,4020,490,3960,490C3900,490,3840,490,3780,490C3720,490,3660,490,3600,490C3540,490,3480,490,3420,490C3360,490,3300,490,3240,490C3180,490,3120,490,3060,490C3000,490,2940,490,2880,490C2820,490,2760,490,2700,490C2640,490,2580,490,2520,490C2460,490,2400,490,2340,490C2280,490,2220,490,2160,490C2100,490,2040,490,1980,490C1920,490,1860,490,1800,490C1740,490,1680,490,1620,490C1560,490,1500,490,1440,490C1380,490,1320,490,1260,490C1200,490,1140,490,1080,490C1020,490,960,490,900,490C840,490,780,490,720,490C660,490,600,490,540,490C480,490,420,490,360,490C300,490,240,490,180,490C120,490,60,490,30,490L0,490Z"/><defs><linearGradient id="sw-gradient-2" x1="0" x2="0" y1="1" y2="0"><stop stop-color="rgba(255, 255, 255, 1)" offset="0%"/><stop stop-color="rgba(95.945, 95.945, 95.945, 1)" offset="100%"/></linearGradient></defs><path style="transform:translate(0, 100px); opacity:0.8" fill="url(#sw-gradient-2)" d="M0,0L30,57.2C60,114,120,229,180,253.2C240,278,300,212,360,187.8C420,163,480,180,540,220.5C600,261,660,327,720,318.5C780,310,840,229,900,187.8C960,147,1020,147,1080,196C1140,245,1200,343,1260,334.8C1320,327,1380,212,1440,163.3C1500,114,1560,131,1620,147C1680,163,1740,180,1800,163.3C1860,147,1920,98,1980,122.5C2040,147,2100,245,2160,294C2220,343,2280,343,2340,310.3C2400,278,2460,212,2520,163.3C2580,114,2640,82,2700,73.5C2760,65,2820,82,2880,122.5C2940,163,3000,229,3060,277.7C3120,327,3180,359,3240,334.8C3300,310,3360,229,3420,204.2C3480,180,3540,212,3600,228.7C3660,245,3720,245,3780,253.2C3840,261,3900,278,3960,302.2C4020,327,4080,359,4140,367.5C4200,376,4260,359,4290,351.2L4320,343L4320,490L4290,490C4260,490,4200,490,4140,490C4080,490,4020,490,3960,490C3900,490,3840,490,3780,490C3720,490,3660,490,3600,490C3540,490,3480,490,3420,490C3360,490,3300,490,3240,490C3180,490,3120,490,3060,490C3000,490,2940,490,2880,490C2820,490,2760,490,2700,490C2640,490,2580,490,2520,490C2460,490,2400,490,2340,490C2280,490,2220,490,2160,490C2100,490,2040,490,1980,490C1920,490,1860,490,1800,490C1740,490,1680,490,1620,490C1560,490,1500,490,1440,490C1380,490,1320,490,1260,490C1200,490,1140,490,1080,490C1020,490,960,490,900,490C840,490,780,490,720,490C660,490,600,490,540,490C480,490,420,490,360,490C300,490,240,490,180,490C120,490,60,490,30,490L0,490Z"/></svg>